# Blender v3.4.1 OBJ File: 'Minesweeper3D.blend'
# www.blender.org
mtllib cubeBase.mtl
o Cube
v 0.475000 0.450000 0.450000
v 0.475000 0.450000 -0.450000
v 0.475000 -0.450000 0.450000
v 0.475000 -0.450000 -0.450000
v -0.475000 0.450000 0.450000
v -0.475000 0.450000 -0.450000
v -0.450000 -0.475000 0.450000
v -0.450000 -0.475000 -0.450000
v 0.450000 -0.450000 0.475000
v -0.450000 -0.450000 0.475000
v 0.450000 0.450000 0.475000
v -0.450000 0.450000 0.475000
v 0.500000 -0.500000 0.500000
v -0.500000 -0.500000 0.500000
v 0.500000 0.500000 0.500000
v -0.500000 0.500000 0.500000
v 0.450000 0.475000 0.450000
v 0.450000 0.475000 -0.450000
v 0.450000 -0.475000 0.450000
v 0.450000 -0.475000 -0.450000
v -0.475000 -0.450000 -0.450000
v -0.475000 -0.450000 0.450000
v 0.500000 -0.500000 0.500000
v 0.450000 -0.450000 -0.475000
v -0.450000 0.475000 -0.450000
v -0.450000 -0.450000 -0.475000
v -0.500000 -0.500000 0.500000
v -0.450000 0.475000 0.450000
v 0.450000 0.450000 -0.475000
v -0.450000 0.450000 -0.475000
v 0.500000 0.500000 0.500000
v -0.500000 0.500000 0.500000
v -0.500000 0.500000 -0.500000
v -0.500000 -0.500000 -0.500000
v 0.500000 0.500000 -0.500000
v 0.500000 -0.500000 -0.500000
vt 0.625000 1.000000
vt 0.625000 0.750000
vt 0.625000 0.750000
vt 0.625000 1.000000
vt 0.625000 0.250000
vt 0.625000 0.000000
vt 0.625000 0.000000
vt 0.625000 0.250000
vt 0.625000 0.500000
vt 0.625000 0.500000
vt 0.637500 0.737500
vt 0.862500 0.737500
vt 0.875000 0.750000
vt 0.637500 0.512500
vt 0.862500 0.512500
vt 0.875000 0.500000
vt 0.612500 0.512500
vt 0.387500 0.512500
vt 0.375000 0.500000
vt 0.387500 0.737500
vt 0.612500 0.737500
vt 0.375000 0.750000
vt 0.387500 0.987500
vt 0.612500 0.987500
vt 0.375000 1.000000
vt 0.612500 0.762500
vt 0.387500 0.762500
vt 0.387500 0.012500
vt 0.387500 0.237500
vt 0.375000 0.250000
vt 0.375000 0.000000
vt 0.612500 0.012500
vt 0.612500 0.237500
vt 0.387500 0.262500
vt 0.387500 0.487500
vt 0.612500 0.487500
vt 0.612500 0.262500
vt 0.137500 0.512500
vt 0.137500 0.737500
vt 0.125000 0.750000
vt 0.125000 0.500000
vt 0.362500 0.512500
vt 0.362500 0.737500
vt 0.998740 0.000409
vt 0.998740 1.001934
vt -0.002784 1.001934
vt -0.002784 0.000410
vt 1.003045 0.001039
vt 1.003045 0.999075
vt 0.005009 0.999075
vt 0.005009 0.001039
vt 0.996147 0.997953
vt -0.001767 0.997953
vt -0.001767 0.000039
vt 0.996147 0.000039
vt 1.004072 0.002349
vt 1.004072 1.003321
vt 0.003098 1.003321
vt 0.003099 0.002349
vt 1.005237 -0.006277
vt 1.005237 0.997900
vt 0.001061 0.997900
vt 0.001061 -0.006277
vt -0.001607 -0.000901
vt 1.001654 -0.000901
vt 1.001654 1.003552
vt -0.001607 1.003552
vn 0.0000 0.0000 1.0000
vn 0.0000 0.4472 0.8944
vn -0.4472 0.0000 0.8944
vn 0.4472 0.0000 0.8944
vn 0.0000 -0.4472 0.8944
vn 0.8944 -0.4472 0.0000
vn 0.8944 0.4472 0.0000
vn 0.8944 0.0000 -0.4472
vn 0.8944 0.0000 0.4472
vn 0.4472 -0.8944 0.0000
vn -0.4472 -0.8944 0.0000
vn 0.0000 -0.8944 -0.4472
vn 0.0000 -0.8944 0.4472
vn -0.8944 0.0000 0.4472
vn -0.8944 0.4472 0.0000
vn -0.8944 -0.4472 0.0000
vn -0.8944 0.0000 -0.4472
vn 0.0000 0.8944 0.4472
vn -0.4472 0.8944 0.0000
vn 0.4472 0.8944 0.0000
vn 0.0000 0.8944 -0.4472
vn 0.4472 0.0000 -0.8944
vn 0.0000 -0.4472 -0.8944
vn 0.0000 0.4472 -0.8944
vn -0.4472 0.0000 -0.8944
vn 0.0000 -1.0000 0.0000
vn -1.0000 0.0000 0.0000
vn 0.0000 0.0000 -1.0000
vn 1.0000 0.0000 0.0000
vn 0.0000 1.0000 0.0000
usemtl BorderColor
s off
f 27/1/1 23/2/1 13/3/1 14/4/1
f 32/5/1 27/6/1 14/7/1 16/8/1
f 23/2/1 31/9/1 15/10/1 13/3/1
f 31/9/1 32/5/1 16/8/1 15/10/1
f 9/11/2 10/12/2 14/13/2 13/3/2
f 11/14/3 9/11/3 13/3/3 15/10/3
f 10/12/4 12/15/4 16/16/4 14/13/4
f 12/15/5 11/14/5 15/10/5 16/16/5
f 1/17/6 2/18/6 35/19/6 31/9/6
f 4/20/7 3/21/7 23/2/7 36/22/7
f 3/21/8 1/17/8 31/9/8 23/2/8
f 2/18/9 4/20/9 36/22/9 35/19/9
f 8/23/10 7/24/10 27/1/10 34/25/10
f 19/26/11 20/27/11 36/22/11 23/2/11
f 7/24/12 19/26/12 23/2/12 27/1/12
f 20/27/13 8/23/13 34/25/13 36/22/13
f 21/28/14 6/29/14 33/30/14 34/31/14
f 22/32/15 21/28/15 34/31/15 27/6/15
f 6/29/16 5/33/16 32/5/16 33/30/16
f 5/33/17 22/32/17 27/6/17 32/5/17
f 25/34/18 18/35/18 35/19/18 33/30/18
f 18/35/19 17/36/19 31/9/19 35/19/19
f 28/37/20 25/34/20 33/30/20 32/5/20
f 17/36/21 28/37/21 32/5/21 31/9/21
f 30/38/22 26/39/22 34/40/22 33/41/22
f 29/42/23 30/38/23 33/41/23 35/19/23
f 26/39/24 24/43/24 36/22/24 34/40/24
f 24/43/25 29/42/25 35/19/25 36/22/25
usemtl Image
f 20/44/26 19/45/26 7/46/26 8/47/26
f 21/48/27 22/49/27 5/50/27 6/51/27
f 30/52/28 29/53/28 24/54/28 26/55/28
f 2/56/29 1/57/29 3/58/29 4/59/29
f 25/60/30 28/61/30 17/62/30 18/63/30
f 11/64/1 12/65/1 10/66/1 9/67/1
